<mxfile host="65bd71144e">
    <diagram id="Hy1jQ7YTtF9Ppq3iQ_IU" name="Pagina-1">
        <mxGraphModel dx="1593" dy="1117" grid="0" gridSize="10" guides="1" tooltips="1" connect="1" arrows="1" fold="1" page="1" pageScale="1" pageWidth="827" pageHeight="1169" background="#ffffff" math="0" shadow="0">
            <root>
                <mxCell id="0"/>
                <mxCell id="1" parent="0"/>
                <mxCell id="43" value="Security Group - Admin Server" style="fillColor=none;strokeColor=#DD3522;verticalAlign=top;fontStyle=0;fontColor=#DD3522;" vertex="1" parent="1">
                    <mxGeometry x="447" y="836" width="320" height="250" as="geometry"/>
                </mxCell>
                <mxCell id="HAavd_gLUyI3N0wvdStv-25" value="Region eu-central-1" style="points=[[0,0],[0.25,0],[0.5,0],[0.75,0],[1,0],[1,0.25],[1,0.5],[1,0.75],[1,1],[0.75,1],[0.5,1],[0.25,1],[0,1],[0,0.75],[0,0.5],[0,0.25]];outlineConnect=0;gradientColor=none;html=1;whiteSpace=wrap;fontSize=12;fontStyle=0;container=1;pointerEvents=0;collapsible=0;recursiveResize=0;shape=mxgraph.aws4.group;grIcon=mxgraph.aws4.group_region;strokeColor=#147EBA;fillColor=none;verticalAlign=top;align=left;spacingLeft=30;fontColor=#147EBA;dashed=1;strokeWidth=3;flipH=0;flipV=0;" parent="1" vertex="1">
                    <mxGeometry x="168" y="152" width="1296" height="991" as="geometry"/>
                </mxCell>
                <mxCell id="HAavd_gLUyI3N0wvdStv-35" value="VPC 10.20.20.0/24&lt;br&gt;" style="sketch=0;outlineConnect=0;gradientColor=none;html=1;whiteSpace=wrap;fontSize=12;fontStyle=0;shape=mxgraph.aws4.group;grIcon=mxgraph.aws4.group_vpc;strokeColor=#879196;fillColor=none;verticalAlign=top;align=left;spacingLeft=30;fontColor=#879196;dashed=0;" parent="HAavd_gLUyI3N0wvdStv-25" vertex="1">
                    <mxGeometry x="199" y="606" width="430" height="350" as="geometry"/>
                </mxCell>
                <mxCell id="W49BcRsQiQdXB_XDPb7Q-12" value="Availability Zona 1a" style="sketch=0;outlineConnect=0;gradientColor=none;html=1;whiteSpace=wrap;fontSize=12;fontStyle=0;shape=mxgraph.aws4.group;grIcon=mxgraph.aws4.group_availability_zone;strokeColor=#545B64;fillColor=none;verticalAlign=top;align=left;spacingLeft=30;fontColor=#545B64;dashed=1;flipV=0;flipH=0;" parent="HAavd_gLUyI3N0wvdStv-25" vertex="1">
                    <mxGeometry x="216" y="637" width="396" height="310" as="geometry"/>
                </mxCell>
                <mxCell id="wwyywsmrsrgcyLTouo67-3" value="Public subnet /26" style="points=[[0,0],[0.25,0],[0.5,0],[0.75,0],[1,0],[1,0.25],[1,0.5],[1,0.75],[1,1],[0.75,1],[0.5,1],[0.25,1],[0,1],[0,0.75],[0,0.5],[0,0.25]];outlineConnect=0;gradientColor=none;html=1;whiteSpace=wrap;fontSize=12;fontStyle=0;container=1;pointerEvents=0;collapsible=0;recursiveResize=0;shape=mxgraph.aws4.group;grIcon=mxgraph.aws4.group_security_group;grStroke=0;strokeColor=#248814;fillColor=#E9F3E6;verticalAlign=top;align=left;spacingLeft=30;fontColor=#248814;dashed=0;" parent="HAavd_gLUyI3N0wvdStv-25" vertex="1">
                    <mxGeometry x="353" y="715" width="191" height="76" as="geometry"/>
                </mxCell>
                <mxCell id="HAavd_gLUyI3N0wvdStv-36" value="VPC 10.10.10.0/24" style="sketch=0;outlineConnect=0;gradientColor=none;html=1;whiteSpace=wrap;fontSize=12;fontStyle=0;shape=mxgraph.aws4.group;grIcon=mxgraph.aws4.group_vpc;strokeColor=#879196;fillColor=none;verticalAlign=top;align=left;spacingLeft=30;fontColor=#879196;dashed=0;strokeWidth=3;" parent="HAavd_gLUyI3N0wvdStv-25" vertex="1">
                    <mxGeometry x="10" y="40" width="1233" height="473" as="geometry"/>
                </mxCell>
                <mxCell id="wwyywsmrsrgcyLTouo67-17" value="Autoscaling group with Launch Template" style="points=[[0,0],[0.25,0],[0.5,0],[0.75,0],[1,0],[1,0.25],[1,0.5],[1,0.75],[1,1],[0.75,1],[0.5,1],[0.25,1],[0,1],[0,0.75],[0,0.5],[0,0.25]];outlineConnect=0;gradientColor=none;html=1;whiteSpace=wrap;fontSize=12;fontStyle=0;container=1;pointerEvents=0;collapsible=0;recursiveResize=0;shape=mxgraph.aws4.groupCenter;grIcon=mxgraph.aws4.group_auto_scaling_group;grStroke=1;strokeColor=#D86613;fillColor=none;verticalAlign=top;align=center;fontColor=#D86613;dashed=1;spacingTop=25;strokeWidth=3;" parent="HAavd_gLUyI3N0wvdStv-25" vertex="1">
                    <mxGeometry x="29.5" y="164" width="837.5" height="336" as="geometry"/>
                </mxCell>
                <mxCell id="wwyywsmrsrgcyLTouo67-22" value="Security Group - Web Server" style="fillColor=none;strokeColor=#DD3522;verticalAlign=top;fontStyle=0;fontColor=#DD3522;" parent="wwyywsmrsrgcyLTouo67-17" vertex="1">
                    <mxGeometry x="30" y="100" width="1120" height="214" as="geometry"/>
                </mxCell>
                <mxCell id="HAavd_gLUyI3N0wvdStv-28" value="Availability Zona 1a" style="sketch=0;outlineConnect=0;gradientColor=none;html=1;whiteSpace=wrap;fontSize=12;fontStyle=0;shape=mxgraph.aws4.group;grIcon=mxgraph.aws4.group_availability_zone;strokeColor=#545B64;fillColor=none;verticalAlign=top;align=left;spacingLeft=30;fontColor=#545B64;dashed=1;" parent="wwyywsmrsrgcyLTouo67-17" vertex="1">
                    <mxGeometry x="20.75" y="68" width="239.5" height="260" as="geometry"/>
                </mxCell>
                <mxCell id="HAavd_gLUyI3N0wvdStv-34" value="Availability Zona 1c" style="sketch=0;outlineConnect=0;gradientColor=none;html=1;whiteSpace=wrap;fontSize=12;fontStyle=0;shape=mxgraph.aws4.group;grIcon=mxgraph.aws4.group_availability_zone;strokeColor=#545B64;fillColor=none;verticalAlign=top;align=left;spacingLeft=30;fontColor=#545B64;dashed=1;flipV=0;flipH=0;" parent="wwyywsmrsrgcyLTouo67-17" vertex="1">
                    <mxGeometry x="590" y="70" width="230" height="260" as="geometry"/>
                </mxCell>
                <mxCell id="HAavd_gLUyI3N0wvdStv-29" value="Availability Zona 1b" style="sketch=0;outlineConnect=0;gradientColor=none;html=1;whiteSpace=wrap;fontSize=12;fontStyle=0;shape=mxgraph.aws4.group;grIcon=mxgraph.aws4.group_availability_zone;strokeColor=#545B64;fillColor=none;verticalAlign=top;align=left;spacingLeft=30;fontColor=#545B64;dashed=1;" parent="wwyywsmrsrgcyLTouo67-17" vertex="1">
                    <mxGeometry x="284.87" y="70" width="235.13" height="260" as="geometry"/>
                </mxCell>
                <mxCell id="HAavd_gLUyI3N0wvdStv-19" value="Public subnet /26" style="points=[[0,0],[0.25,0],[0.5,0],[0.75,0],[1,0],[1,0.25],[1,0.5],[1,0.75],[1,1],[0.75,1],[0.5,1],[0.25,1],[0,1],[0,0.75],[0,0.5],[0,0.25]];outlineConnect=0;gradientColor=none;html=1;whiteSpace=wrap;fontSize=12;fontStyle=0;container=1;pointerEvents=0;collapsible=0;recursiveResize=0;shape=mxgraph.aws4.group;grIcon=mxgraph.aws4.group_security_group;grStroke=0;strokeColor=#248814;fillColor=#E9F3E6;verticalAlign=top;align=left;spacingLeft=30;fontColor=#248814;dashed=0;" parent="wwyywsmrsrgcyLTouo67-17" vertex="1">
                    <mxGeometry x="311" y="130" width="183" height="90" as="geometry"/>
                </mxCell>
                <mxCell id="7" value="web instance" style="sketch=0;points=[[0,0,0],[0.25,0,0],[0.5,0,0],[0.75,0,0],[1,0,0],[0,1,0],[0.25,1,0],[0.5,1,0],[0.75,1,0],[1,1,0],[0,0.25,0],[0,0.5,0],[0,0.75,0],[1,0.25,0],[1,0.5,0],[1,0.75,0]];outlineConnect=0;fontColor=#232F3E;gradientColor=#F78E04;gradientDirection=north;fillColor=none;strokeColor=#FF6F0F;dashed=0;verticalLabelPosition=bottom;verticalAlign=top;align=center;html=1;fontSize=12;fontStyle=0;aspect=fixed;shape=mxgraph.aws4.resourceIcon;resIcon=mxgraph.aws4.ec2;" vertex="1" parent="HAavd_gLUyI3N0wvdStv-19">
                    <mxGeometry x="79.5" y="23" width="38" height="38" as="geometry"/>
                </mxCell>
                <mxCell id="HAavd_gLUyI3N0wvdStv-23" value="Private subnet /26" style="points=[[0,0],[0.25,0],[0.5,0],[0.75,0],[1,0],[1,0.25],[1,0.5],[1,0.75],[1,1],[0.75,1],[0.5,1],[0.25,1],[0,1],[0,0.75],[0,0.5],[0,0.25]];outlineConnect=0;gradientColor=none;html=1;whiteSpace=wrap;fontSize=12;fontStyle=0;container=1;pointerEvents=0;collapsible=0;recursiveResize=0;shape=mxgraph.aws4.group;grIcon=mxgraph.aws4.group_security_group;grStroke=0;strokeColor=#147EBA;fillColor=#E6F2F8;verticalAlign=top;align=left;spacingLeft=30;fontColor=#147EBA;dashed=0;" parent="wwyywsmrsrgcyLTouo67-17" vertex="1">
                    <mxGeometry x="47" y="237" width="187" height="63" as="geometry"/>
                </mxCell>
                <mxCell id="HAavd_gLUyI3N0wvdStv-18" value="Public subnet /26" style="points=[[0,0],[0.25,0],[0.5,0],[0.75,0],[1,0],[1,0.25],[1,0.5],[1,0.75],[1,1],[0.75,1],[0.5,1],[0.25,1],[0,1],[0,0.75],[0,0.5],[0,0.25]];outlineConnect=0;gradientColor=none;html=1;whiteSpace=wrap;fontSize=12;fontStyle=0;container=1;pointerEvents=0;collapsible=0;recursiveResize=0;shape=mxgraph.aws4.group;grIcon=mxgraph.aws4.group_security_group;grStroke=0;strokeColor=#248814;fillColor=#E9F3E6;verticalAlign=top;align=left;spacingLeft=30;fontColor=#248814;dashed=0;" parent="wwyywsmrsrgcyLTouo67-17" vertex="1">
                    <mxGeometry x="47" y="130" width="183" height="94" as="geometry"/>
                </mxCell>
                <mxCell id="wwyywsmrsrgcyLTouo67-13" value="web instance" style="sketch=0;points=[[0,0,0],[0.25,0,0],[0.5,0,0],[0.75,0,0],[1,0,0],[0,1,0],[0.25,1,0],[0.5,1,0],[0.75,1,0],[1,1,0],[0,0.25,0],[0,0.5,0],[0,0.75,0],[1,0.25,0],[1,0.5,0],[1,0.75,0]];outlineConnect=0;fontColor=#232F3E;gradientColor=#F78E04;gradientDirection=north;fillColor=#D05C17;strokeColor=#ffffff;dashed=0;verticalLabelPosition=bottom;verticalAlign=top;align=center;html=1;fontSize=12;fontStyle=0;aspect=fixed;shape=mxgraph.aws4.resourceIcon;resIcon=mxgraph.aws4.ec2;" parent="HAavd_gLUyI3N0wvdStv-18" vertex="1">
                    <mxGeometry x="61.5" y="29" width="38" height="38" as="geometry"/>
                </mxCell>
                <mxCell id="HAavd_gLUyI3N0wvdStv-22" value="Private subnet /26" style="points=[[0,0],[0.25,0],[0.5,0],[0.75,0],[1,0],[1,0.25],[1,0.5],[1,0.75],[1,1],[0.75,1],[0.5,1],[0.25,1],[0,1],[0,0.75],[0,0.5],[0,0.25]];outlineConnect=0;gradientColor=none;html=1;whiteSpace=wrap;fontSize=12;fontStyle=0;container=1;pointerEvents=0;collapsible=0;recursiveResize=0;shape=mxgraph.aws4.group;grIcon=mxgraph.aws4.group_security_group;grStroke=0;strokeColor=#147EBA;fillColor=#E6F2F8;verticalAlign=top;align=left;spacingLeft=30;fontColor=#147EBA;dashed=0;" parent="wwyywsmrsrgcyLTouo67-17" vertex="1">
                    <mxGeometry x="311" y="237" width="185" height="62" as="geometry"/>
                </mxCell>
                <mxCell id="53" value="Private subnet /26" style="points=[[0,0],[0.25,0],[0.5,0],[0.75,0],[1,0],[1,0.25],[1,0.5],[1,0.75],[1,1],[0.75,1],[0.5,1],[0.25,1],[0,1],[0,0.75],[0,0.5],[0,0.25]];outlineConnect=0;gradientColor=none;html=1;whiteSpace=wrap;fontSize=12;fontStyle=0;container=1;pointerEvents=0;collapsible=0;recursiveResize=0;shape=mxgraph.aws4.group;grIcon=mxgraph.aws4.group_security_group;grStroke=0;strokeColor=#147EBA;fillColor=#E6F2F8;verticalAlign=top;align=left;spacingLeft=30;fontColor=#147EBA;dashed=0;" vertex="1" parent="wwyywsmrsrgcyLTouo67-17">
                    <mxGeometry x="612.5" y="237" width="185" height="62" as="geometry"/>
                </mxCell>
                <mxCell id="HAavd_gLUyI3N0wvdStv-38" value="Public subnet /26" style="points=[[0,0],[0.25,0],[0.5,0],[0.75,0],[1,0],[1,0.25],[1,0.5],[1,0.75],[1,1],[0.75,1],[0.5,1],[0.25,1],[0,1],[0,0.75],[0,0.5],[0,0.25]];outlineConnect=0;gradientColor=none;html=1;whiteSpace=wrap;fontSize=12;fontStyle=0;container=1;pointerEvents=0;collapsible=0;recursiveResize=0;shape=mxgraph.aws4.group;grIcon=mxgraph.aws4.group_security_group;grStroke=0;strokeColor=#248814;fillColor=#E9F3E6;verticalAlign=top;align=left;spacingLeft=30;fontColor=#248814;dashed=0;" parent="wwyywsmrsrgcyLTouo67-17" vertex="1">
                    <mxGeometry x="612" y="133" width="179.5" height="83" as="geometry"/>
                </mxCell>
                <mxCell id="44" value="web instance" style="sketch=0;points=[[0,0,0],[0.25,0,0],[0.5,0,0],[0.75,0,0],[1,0,0],[0,1,0],[0.25,1,0],[0.5,1,0],[0.75,1,0],[1,1,0],[0,0.25,0],[0,0.5,0],[0,0.75,0],[1,0.25,0],[1,0.5,0],[1,0.75,0]];outlineConnect=0;fontColor=#232F3E;gradientColor=#F78E04;gradientDirection=north;fillColor=none;strokeColor=#FF6F0F;dashed=0;verticalLabelPosition=bottom;verticalAlign=top;align=center;html=1;fontSize=12;fontStyle=0;aspect=fixed;shape=mxgraph.aws4.resourceIcon;resIcon=mxgraph.aws4.ec2;" vertex="1" parent="HAavd_gLUyI3N0wvdStv-38">
                    <mxGeometry x="67.5" y="22" width="40" height="40" as="geometry"/>
                </mxCell>
                <mxCell id="wwyywsmrsrgcyLTouo67-2" value="Private subnet /26" style="points=[[0,0],[0.25,0],[0.5,0],[0.75,0],[1,0],[1,0.25],[1,0.5],[1,0.75],[1,1],[0.75,1],[0.5,1],[0.25,1],[0,1],[0,0.75],[0,0.5],[0,0.25]];outlineConnect=0;gradientColor=none;html=1;whiteSpace=wrap;fontSize=12;fontStyle=0;container=1;pointerEvents=0;collapsible=0;recursiveResize=0;shape=mxgraph.aws4.group;grIcon=mxgraph.aws4.group_security_group;grStroke=0;strokeColor=#147EBA;fillColor=#E6F2F8;verticalAlign=top;align=left;spacingLeft=30;fontColor=#147EBA;dashed=0;" parent="HAavd_gLUyI3N0wvdStv-25" vertex="1">
                    <mxGeometry x="352" y="808" width="193" height="109" as="geometry"/>
                </mxCell>
                <mxCell id="wwyywsmrsrgcyLTouo67-4" value="" style="outlineConnect=0;dashed=0;verticalLabelPosition=bottom;verticalAlign=top;align=center;html=1;shape=mxgraph.aws3.application_load_balancer;fillColor=#F58536;gradientColor=none;" parent="HAavd_gLUyI3N0wvdStv-25" vertex="1">
                    <mxGeometry x="628.5" y="56" width="65" height="69" as="geometry"/>
                </mxCell>
                <mxCell id="HAavd_gLUyI3N0wvdStv-1" value="VPC Peering Connection" style="outlineConnect=0;dashed=0;verticalLabelPosition=bottom;verticalAlign=top;align=center;html=1;shape=mxgraph.aws3.customer_gateway;fillColor=#F58534;gradientColor=none;fontColor=#000000;" parent="HAavd_gLUyI3N0wvdStv-25" vertex="1">
                    <mxGeometry x="477" y="536" width="40" height="40" as="geometry"/>
                </mxCell>
                <mxCell id="W49BcRsQiQdXB_XDPb7Q-2" value="" style="endArrow=classic;startArrow=classic;html=1;rounded=0;fontColor=#000000;strokeColor=#000000;" parent="HAavd_gLUyI3N0wvdStv-25" source="HAavd_gLUyI3N0wvdStv-35" edge="1">
                    <mxGeometry width="50" height="50" relative="1" as="geometry">
                        <mxPoint x="362" y="550" as="sourcePoint"/>
                        <mxPoint x="412" y="513" as="targetPoint"/>
                    </mxGeometry>
                </mxCell>
                <mxCell id="10" value="Availability Zone 1a" style="sketch=0;outlineConnect=0;gradientColor=none;html=1;whiteSpace=wrap;fontSize=12;fontStyle=0;shape=mxgraph.aws4.group;grIcon=mxgraph.aws4.group_availability_zone;strokeColor=#545B64;fillColor=none;verticalAlign=top;align=left;spacingLeft=30;fontColor=#545B64;dashed=1;flipV=0;flipH=0;" vertex="1" parent="HAavd_gLUyI3N0wvdStv-25">
                    <mxGeometry x="972" y="233" width="230" height="260" as="geometry"/>
                </mxCell>
                <mxCell id="12" value="Public subnet /26" style="points=[[0,0],[0.25,0],[0.5,0],[0.75,0],[1,0],[1,0.25],[1,0.5],[1,0.75],[1,1],[0.75,1],[0.5,1],[0.25,1],[0,1],[0,0.75],[0,0.5],[0,0.25]];outlineConnect=0;gradientColor=none;html=1;whiteSpace=wrap;fontSize=12;fontStyle=0;container=1;pointerEvents=0;collapsible=0;recursiveResize=0;shape=mxgraph.aws4.group;grIcon=mxgraph.aws4.group_security_group;grStroke=0;strokeColor=#248814;fillColor=#E9F3E6;verticalAlign=top;align=left;spacingLeft=30;fontColor=#248814;dashed=0;" vertex="1" parent="HAavd_gLUyI3N0wvdStv-25">
                    <mxGeometry x="1004" y="292" width="159" height="59" as="geometry"/>
                </mxCell>
                <mxCell id="40" value="Private subnet /26" style="points=[[0,0],[0.25,0],[0.5,0],[0.75,0],[1,0],[1,0.25],[1,0.5],[1,0.75],[1,1],[0.75,1],[0.5,1],[0.25,1],[0,1],[0,0.75],[0,0.5],[0,0.25]];outlineConnect=0;gradientColor=none;html=1;whiteSpace=wrap;fontSize=12;fontStyle=0;container=1;pointerEvents=0;collapsible=0;recursiveResize=0;shape=mxgraph.aws4.group;grIcon=mxgraph.aws4.group_security_group;grStroke=0;strokeColor=#147EBA;fillColor=#E6F2F8;verticalAlign=top;align=left;spacingLeft=30;fontColor=#147EBA;dashed=0;" vertex="1" parent="HAavd_gLUyI3N0wvdStv-25">
                    <mxGeometry x="1004" y="371" width="159" height="86" as="geometry"/>
                </mxCell>
                <mxCell id="41" value="web server" style="sketch=0;points=[[0,0,0],[0.25,0,0],[0.5,0,0],[0.75,0,0],[1,0,0],[0,1,0],[0.25,1,0],[0.5,1,0],[0.75,1,0],[1,1,0],[0,0.25,0],[0,0.5,0],[0,0.75,0],[1,0.25,0],[1,0.5,0],[1,0.75,0]];outlineConnect=0;fontColor=#232F3E;gradientColor=#F78E04;gradientDirection=north;fillColor=#D05C17;strokeColor=#ffffff;dashed=0;verticalLabelPosition=bottom;verticalAlign=top;align=center;html=1;fontSize=12;fontStyle=0;aspect=fixed;shape=mxgraph.aws4.resourceIcon;resIcon=mxgraph.aws4.ec2;" vertex="1" parent="40">
                    <mxGeometry x="51" y="21" width="38" height="38" as="geometry"/>
                </mxCell>
                <mxCell id="50" value="S3 Endpoint" style="sketch=0;outlineConnect=0;fontColor=#232F3E;gradientColor=none;fillColor=#4D27AA;strokeColor=none;dashed=0;verticalLabelPosition=bottom;verticalAlign=top;align=center;html=1;fontSize=12;fontStyle=0;aspect=fixed;pointerEvents=1;shape=mxgraph.aws4.endpoint;labelBackgroundColor=#FFFFFF;" vertex="1" parent="HAavd_gLUyI3N0wvdStv-25">
                    <mxGeometry x="1214" y="277" width="58" height="58" as="geometry"/>
                </mxCell>
                <mxCell id="wwyywsmrsrgcyLTouo67-16" value="Admin Server" style="sketch=0;points=[[0,0,0],[0.25,0,0],[0.5,0,0],[0.75,0,0],[1,0,0],[0,1,0],[0.25,1,0],[0.5,1,0],[0.75,1,0],[1,1,0],[0,0.25,0],[0,0.5,0],[0,0.75,0],[1,0.25,0],[1,0.5,0],[1,0.75,0]];outlineConnect=0;fontColor=#232F3E;gradientColor=#F78E04;gradientDirection=north;fillColor=#D05C17;strokeColor=#ffffff;dashed=0;verticalLabelPosition=bottom;verticalAlign=top;align=center;html=1;fontSize=12;fontStyle=0;aspect=fixed;shape=mxgraph.aws4.resourceIcon;resIcon=mxgraph.aws4.ec2;" parent="HAavd_gLUyI3N0wvdStv-25" vertex="1">
                    <mxGeometry x="420" y="843" width="48" height="48" as="geometry"/>
                </mxCell>
                <mxCell id="HAavd_gLUyI3N0wvdStv-10" value="" style="rounded=0;whiteSpace=wrap;html=1;fillColor=none;strokeColor=#000000;" parent="1" vertex="1">
                    <mxGeometry x="1522" y="469" width="86" height="100" as="geometry"/>
                </mxCell>
                <mxCell id="HAavd_gLUyI3N0wvdStv-6" value="S3" style="sketch=0;points=[[0,0,0],[0.25,0,0],[0.5,0,0],[0.75,0,0],[1,0,0],[0,1,0],[0.25,1,0],[0.5,1,0],[0.75,1,0],[1,1,0],[0,0.25,0],[0,0.5,0],[0,0.75,0],[1,0.25,0],[1,0.5,0],[1,0.75,0]];outlineConnect=0;fontColor=#232F3E;gradientColor=#60A337;gradientDirection=north;fillColor=#277116;strokeColor=#ffffff;dashed=0;verticalLabelPosition=bottom;verticalAlign=top;align=center;html=1;fontSize=12;fontStyle=0;aspect=fixed;shape=mxgraph.aws4.resourceIcon;resIcon=mxgraph.aws4.s3;" parent="1" vertex="1">
                    <mxGeometry x="1485" y="435" width="55" height="55" as="geometry"/>
                </mxCell>
                <mxCell id="HAavd_gLUyI3N0wvdStv-7" value="KMS" style="outlineConnect=0;dashed=0;verticalLabelPosition=bottom;verticalAlign=top;align=center;html=1;shape=mxgraph.aws3.kms;fillColor=#759C3E;gradientColor=none;fontColor=#000000;" parent="1" vertex="1">
                    <mxGeometry x="80" y="320" width="48" height="60" as="geometry"/>
                </mxCell>
                <mxCell id="HAavd_gLUyI3N0wvdStv-8" value="Backup" style="sketch=0;points=[[0,0,0],[0.25,0,0],[0.5,0,0],[0.75,0,0],[1,0,0],[0,1,0],[0.25,1,0],[0.5,1,0],[0.75,1,0],[1,1,0],[0,0.25,0],[0,0.5,0],[0,0.75,0],[1,0.25,0],[1,0.5,0],[1,0.75,0]];outlineConnect=0;fontColor=#232F3E;gradientColor=#60A337;gradientDirection=north;fillColor=#277116;strokeColor=#ffffff;dashed=0;verticalLabelPosition=bottom;verticalAlign=top;align=center;html=1;fontSize=12;fontStyle=0;aspect=fixed;shape=mxgraph.aws4.resourceIcon;resIcon=mxgraph.aws4.backup;" parent="1" vertex="1">
                    <mxGeometry x="80" y="430" width="50" height="50" as="geometry"/>
                </mxCell>
                <mxCell id="wwyywsmrsrgcyLTouo67-12" value="" style="edgeStyle=orthogonalEdgeStyle;rounded=0;orthogonalLoop=1;jettySize=auto;html=1;strokeColor=#000000;" parent="1" source="wwyywsmrsrgcyLTouo67-11" target="wwyywsmrsrgcyLTouo67-4" edge="1">
                    <mxGeometry relative="1" as="geometry"/>
                </mxCell>
                <mxCell id="wwyywsmrsrgcyLTouo67-11" value="" style="sketch=0;pointerEvents=1;shadow=0;dashed=0;html=1;strokeColor=none;labelPosition=center;verticalLabelPosition=bottom;verticalAlign=top;outlineConnect=0;align=center;shape=mxgraph.office.users.users;fillColor=#2072B8;" parent="1" vertex="1">
                    <mxGeometry x="780" y="47" width="98" height="90" as="geometry"/>
                </mxCell>
                <mxCell id="cpGAjX_BwhsMm2MpVyoH-3" value="PDS" style="sketch=0;aspect=fixed;pointerEvents=1;shadow=0;dashed=0;html=1;strokeColor=none;labelPosition=center;verticalLabelPosition=bottom;verticalAlign=top;align=center;fillColor=#00188D;shape=mxgraph.azure.script_file;fontColor=#000000;" parent="1" vertex="1">
                    <mxGeometry x="1539.15" y="486" width="51.7" height="55" as="geometry"/>
                </mxCell>
                <mxCell id="4" value="ACM&lt;br&gt;" style="outlineConnect=0;dashed=0;verticalLabelPosition=bottom;verticalAlign=top;align=center;html=1;shape=mxgraph.aws3.certificate_manager;fillColor=#759C3E;gradientColor=none;labelBackgroundColor=#FFFFFF;fontColor=#000000;strokeColor=#000000;" vertex="1" parent="1">
                    <mxGeometry x="71.15" y="205" width="66.85" height="53.5" as="geometry"/>
                </mxCell>
                <mxCell id="47" style="edgeStyle=none;html=1;exitX=1;exitY=0;exitDx=0;exitDy=0;entryX=0.896;entryY=-0.008;entryDx=0;entryDy=0;entryPerimeter=0;fontSize=12;fontColor=#000000;strokeColor=#000000;" edge="1" parent="1" source="HAavd_gLUyI3N0wvdStv-10" target="HAavd_gLUyI3N0wvdStv-10">
                    <mxGeometry relative="1" as="geometry"/>
                </mxCell>
                <mxCell id="49" value="" style="edgeStyle=none;html=1;fontSize=12;fontColor=#000000;strokeColor=#000000;" edge="1" parent="1" source="HAavd_gLUyI3N0wvdStv-36" target="HAavd_gLUyI3N0wvdStv-6">
                    <mxGeometry relative="1" as="geometry"/>
                </mxCell>
            </root>
        </mxGraphModel>
    </diagram>
</mxfile>